<svg xmlns="http://www.w3.org/2000/svg" width="29" height="29" viewBox="0 0 29 29"><path data-name="Фигура 1" d="M3.27 1.665a1.64 1.64 0 01-3.28 0 1.64 1.64 0 113.28 0zm-1.61 27.34a1.64 1.64 0 111.64-1.64 2.156 2.156 0 01-1.64 1.64zM6.41 4.766a1.64 1.64 0 01-3.28 0 1.64 1.64 0 113.28 0zM4.8 25.874a1.64 1.64 0 111.64-1.64 2.142 2.142 0 01-1.64 1.64zm3.13-3.16a1.64 1.64 0 111.64-1.64 2.142 2.142 0 01-1.64 1.64zM9.54 7.926a1.61 1.61 0 11-1.61-1.64 2.163 2.163 0 011.61 1.64zm3.16 3.1a1.64 1.64 0 11-1.64-1.64 2.194 2.194 0 011.64 1.641zm-1.64 8.556a1.64 1.64 0 111.64-1.639 2.142 2.142 0 01-1.64 1.64zm3.45-2.982a2.117 2.117 0 112.15-2.116 2.785 2.785 0 01-2.15 2.116zm3.46-3.9a1.64 1.64 0 111.64-1.639 2.194 2.194 0 01-1.64 1.639zm1.61 5.248a1.64 1.64 0 11-1.64-1.64 2.142 2.142 0 011.64 1.636zm1.49-8.438a1.61 1.61 0 111.64-1.611 2.122 2.122 0 01-1.64 1.607zm1.64 11.568a1.61 1.61 0 11-1.61-1.64 2.107 2.107 0 011.61 1.636zm1.52-14.669a1.64 1.64 0 110-3.28 1.64 1.64 0 110 3.271zm1.64 17.8a1.64 1.64 0 11-3.28 0 1.64 1.64 0 013.28-.009zm1.47-20.93a1.64 1.64 0 110-3.279 1.64 1.64 0 010 3.274zM29 27.34a1.635 1.635 0 11-1.63-1.639A2.144 2.144 0 0129 27.335z" fill-rule="evenodd"/></svg>