<svg xmlns="http://www.w3.org/2000/svg" width="29" height="29" viewBox="0 0 29 29">
  <defs>
    <style>
      .cls-1 {
        fill-rule: evenodd;
      }
    </style>
  </defs>
  <path id="Фигура_1" data-name="Фигура 1" class="cls-1" d="M1291.27,263.665a1.64,1.64,0,0,1-3.28,0A1.64,1.64,0,1,1,1291.27,263.665Zm-1.61,27.34a1.64,1.64,0,1,1,1.64-1.64A2.156,2.156,0,0,1,1289.66,291.005Zm4.75-24.239a1.64,1.64,0,0,1-3.28,0A1.64,1.64,0,1,1,1294.41,266.766Zm-1.61,21.108a1.64,1.64,0,1,1,1.64-1.64A2.142,2.142,0,0,1,1292.8,287.874Zm3.13-3.16a1.64,1.64,0,1,1,1.64-1.64A2.142,2.142,0,0,1,1295.93,284.714Zm1.61-14.788a1.61,1.61,0,1,1-1.61-1.64A2.163,2.163,0,0,1,1297.54,269.926Zm3.16,3.1a1.64,1.64,0,1,1-1.64-1.64A2.194,2.194,0,0,1,1300.7,273.027Zm-1.64,8.556a1.64,1.64,0,1,1,1.64-1.639A2.142,2.142,0,0,1,1299.06,281.583Zm3.45-2.982a2.117,2.117,0,1,1,2.15-2.116A2.785,2.785,0,0,1,1302.51,278.6Zm3.46-3.9a1.64,1.64,0,1,1,1.64-1.639A2.194,2.194,0,0,1,1305.97,274.7Zm1.61,5.248a1.64,1.64,0,1,1-1.64-1.64A2.142,2.142,0,0,1,1307.58,279.944Zm1.49-8.438a1.61,1.61,0,1,1,1.64-1.611A2.122,2.122,0,0,1,1309.07,271.506Zm1.64,11.568a1.61,1.61,0,1,1-1.61-1.64A2.107,2.107,0,0,1,1310.71,283.074Zm1.52-14.669a1.64,1.64,0,1,1,0-3.28A1.64,1.64,0,1,1,1312.23,268.4Zm1.64,17.8a1.64,1.64,0,1,1-3.28,0A1.64,1.64,0,0,1,1313.87,286.2Zm1.47-20.93a1.64,1.64,0,1,1,0-3.279A1.64,1.64,0,0,1,1315.34,265.274Zm1.66,24.061a1.635,1.635,0,1,1-1.63-1.639A2.144,2.144,0,0,1,1317,289.335Z" transform="translate(-1288 -262)"/>
</svg>
